<svg width="24" height="20" viewBox="0 0 24 20" fill="none" xmlns="http://www.w3.org/2000/svg">
<path d="M23.5036 9.23111C21.1404 3.74426 16.6947 0.339844 11.8981 0.339844C7.10157 0.339844 2.65594 3.74426 0.292732 9.23111C0.228317 9.37871 0.195068 9.53802 0.195068 9.69907C0.195068 9.86012 0.228317 10.0194 0.292732 10.167C2.65594 15.6539 7.10157 19.0583 11.8981 19.0583C16.6947 19.0583 21.1404 15.6539 23.5036 10.167C23.568 10.0194 23.6012 9.86012 23.6012 9.69907C23.6012 9.53802 23.568 9.37871 23.5036 9.23111ZM11.8981 16.7185C8.18958 16.7185 4.67987 14.0394 2.65594 9.69907C4.67987 5.35873 8.18958 2.67965 11.8981 2.67965C15.6067 2.67965 19.1164 5.35873 21.1404 9.69907C19.1164 14.0394 15.6067 16.7185 11.8981 16.7185ZM11.8981 5.01946C10.9726 5.01946 10.0679 5.29391 9.29832 5.80811C8.52877 6.32232 7.92897 7.05317 7.57478 7.90826C7.22059 8.76334 7.12791 9.70426 7.30848 10.612C7.48904 11.5198 7.93474 12.3536 8.58919 13.008C9.24365 13.6625 10.0775 14.1082 10.9852 14.2887C11.893 14.4693 12.8339 14.3767 13.689 14.0224C14.5441 13.6683 15.2749 13.0685 15.7891 12.2989C16.3033 11.5294 16.5777 10.6246 16.5777 9.69907C16.5777 8.45795 16.0847 7.26768 15.2072 6.39008C14.3295 5.51249 13.1393 5.01946 11.8981 5.01946ZM11.8981 12.0389C11.4354 12.0389 10.983 11.9016 10.5982 11.6445C10.2135 11.3874 9.91357 11.022 9.73648 10.5945C9.55938 10.1669 9.51304 9.69647 9.60332 9.24259C9.6936 8.78872 9.91646 8.3718 10.2437 8.04458C10.5709 7.71735 10.9878 7.4945 11.4417 7.40422C11.8955 7.31394 12.3661 7.36028 12.7936 7.53737C13.2212 7.71447 13.5865 8.01436 13.8437 8.39914C14.1007 8.78392 14.2379 9.2363 14.2379 9.69907C14.2379 10.3196 13.9914 10.9148 13.5527 11.3536C13.1139 11.7924 12.5188 12.0389 11.8981 12.0389Z" fill="white"/>
</svg>
