<svg width="70" height="70" viewBox="0 0 70 70" fill="none" xmlns="http://www.w3.org/2000/svg">
<circle cx="35" cy="35" r="35" fill="#FF2800" fill-opacity="0.15"/>
<path fill-rule="evenodd" clip-rule="evenodd" d="M33.8538 17.0545C31.8017 17.3421 29.7257 18.5405 28.5473 20.1181C27.5043 21.5144 27.0192 23.0653 27.0192 25.0047C27.0192 25.64 26.962 26.4747 26.8922 26.8595C26.7777 27.4897 26.7261 27.5843 26.3728 27.8105C25.4655 28.3916 25.2841 28.9216 25.3325 30.8506C25.367 32.2305 25.3777 32.2873 25.6877 32.7345C25.8635 32.9879 26.204 33.2959 26.4444 33.4187C26.874 33.6383 26.8826 33.6539 26.9496 34.3446C27.1886 36.8088 26.8048 39.6721 26.1294 40.4622C25.975 40.6428 25.6788 40.782 25.2181 40.8904C22.9905 41.4143 21.2726 43.4166 20.2597 46.6698C19.9412 47.6924 19.9202 48.2629 20.1717 49.0579C20.8796 51.2957 24.9528 52.5785 32.4833 52.9353C38.7469 53.2321 44.9162 52.489 47.7393 51.0976C48.8247 50.5627 49.3287 50.1325 49.6697 49.4499C50.1904 48.4072 50.1084 47.4486 49.3314 45.4934C48.3292 42.9721 46.736 41.3475 44.8204 40.8942C44.4563 40.808 44.0816 40.6731 43.9875 40.5942C43.7537 40.3984 43.3725 39.4953 43.2201 38.7758C43.041 37.9315 42.9552 35.8745 43.0487 34.6688L43.1283 33.6421L43.5695 33.4187C43.8121 33.2959 44.1544 32.9879 44.3302 32.7345C44.6402 32.2873 44.651 32.2305 44.6855 30.8506C44.7339 28.9194 44.5529 28.3919 43.6413 27.808C43.2685 27.5694 43.238 27.5071 43.1257 26.7614C43.06 26.3253 42.9821 25.4092 42.9525 24.7256C42.923 24.042 42.8248 23.1909 42.7346 22.8342C42.0453 20.111 39.7142 17.8689 36.896 17.2186C35.9979 17.0114 34.6722 16.9399 33.8538 17.0545ZM33.5176 18.7266C32.453 18.9704 31.3642 19.5696 30.5234 20.3743C30.1168 20.7635 29.8024 21.1006 29.8249 21.1234C29.8473 21.1462 30.1115 20.997 30.4118 20.792C31.624 19.9643 32.6518 19.726 35.009 19.726C37.3637 19.726 38.331 19.9484 39.5639 20.773C39.9423 21.0261 40.0909 21.0851 40.0222 20.9549C39.7852 20.5057 38.4561 19.4888 37.6189 19.1162C36.4892 18.6135 34.7377 18.447 33.5176 18.7266ZM30.9076 26.6565C30.0268 27.0635 29.2817 28.2408 29.0204 29.6385C28.9493 30.0188 28.8586 30.3094 28.8188 30.2845C28.6771 30.1956 28.6314 30.7415 28.6785 31.9575C28.7276 33.218 28.8109 33.48 29.1628 33.48C29.2729 33.48 29.3629 33.542 29.3629 33.6179C29.3629 33.9574 30.5718 36.1935 31.1132 36.8556C32.3153 38.3257 33.4391 38.9926 34.8492 39.0726C35.9103 39.1329 36.6308 38.8862 37.6263 38.1217C38.5933 37.3791 39.7631 35.9703 39.4895 35.8778C39.4279 35.8571 39.1497 35.9156 38.8711 36.0081C38.5926 36.1007 38.0055 36.2318 37.5665 36.2995C37.006 36.3862 36.6786 36.4996 36.4665 36.6807C36.1932 36.914 36.0652 36.9385 35.1217 36.9385C34.2329 36.9385 34.0381 36.9058 33.8022 36.7177C33.4386 36.4275 33.3384 35.8815 33.5665 35.4339C33.7963 34.9829 34.0903 34.885 35.2146 34.885C36.0069 34.885 36.1962 34.9202 36.4377 35.1129C36.6833 35.309 36.8066 35.3304 37.3156 35.2659C38.0896 35.1677 38.8283 34.9508 39.7633 34.5468C40.409 34.2679 40.537 34.1681 40.6183 33.8806C40.6833 33.651 40.7984 33.5222 40.9774 33.4794C41.2403 33.4166 41.2411 33.4129 41.2708 31.9133L41.3005 30.4101L41.0388 30.6596L40.777 30.909L39.2513 30.1237C38.4121 29.6918 36.4865 28.6896 34.9722 27.8966C31.9727 26.3259 31.7621 26.2616 30.9076 26.6565ZM30.9299 38.6385C30.9046 38.6843 30.8525 38.8546 30.8143 39.017C30.7223 39.4074 30.1894 40.0126 29.7895 40.1806C29.6135 40.2547 29.4694 40.3602 29.4694 40.4155C29.4694 40.921 30.5406 41.9054 31.7399 42.502C34.2701 43.7608 37.0242 43.5247 39.3366 41.8505C39.9623 41.3976 40.5485 40.7204 40.5485 40.4505C40.5485 40.3887 40.3751 40.2433 40.1632 40.1276C39.6985 39.8737 39.2953 39.3627 39.2073 38.9162L39.1426 38.5884L38.2593 39.2643C37.2053 40.0708 36.4113 40.3975 35.3149 40.476C34.0056 40.5697 32.6384 40.0449 31.4745 39.0017C31.2004 38.756 30.9554 38.5925 30.9299 38.6385Z" fill="#FF2800"/>
</svg>
