<svg width="145" height="220" viewBox="0 0 145 220" fill="none" xmlns="http://www.w3.org/2000/svg">
<path d="M2.16118 39.572L1 39.5592M2.16118 39.572C2.19671 29.128 13.7055 22.59 22.9019 27.868L168.157 111.242M2.16118 39.572L1.59461 205.351C1.55916 215.772 12.9954 222.4 22.2439 217.174L168.065 134.767M168.157 111.242L168.728 110.233M168.157 111.242C177.306 116.493 177.286 129.556 168.065 134.767M168.065 134.767L168.641 135.782" stroke="#FF2800" stroke-width="2"/>
<path d="M73.7074 9.22761L73 9.21984M73.7074 9.22761C73.729 2.89625 80.7401 -1.06719 86.3425 2.13239L174.831 52.6751M73.7074 9.22761L73.3622 109.726C73.3406 116.043 80.3075 120.061 85.9417 116.893L174.775 66.9367M174.831 52.6751L175.179 52.0637M174.831 52.6751C180.405 55.8584 180.393 63.7777 174.775 66.9367M174.775 66.9367L175.126 67.5518" stroke="#FF2800" stroke-width="2"/>
</svg>
