<svg width="25" height="28" viewBox="0 0 25 28" fill="none" xmlns="http://www.w3.org/2000/svg">
<path fill-rule="evenodd" clip-rule="evenodd" d="M11.2581 0.2407C10.9661 0.322441 10.9731 0.315597 9.90625 1.55311C8.69126 2.96244 7.70816 4.10078 5.44098 6.72359C2.22992 10.4384 1.84406 10.8882 1.72728 11.0533C1.55908 11.291 1.29824 11.8324 1.18539 12.178C1.13441 12.3342 1.06054 12.6233 1.02127 12.8206C0.938538 13.2362 0.891199 13.8744 0.945743 13.8393C0.971178 13.8229 0.974164 13.85 0.957571 13.9466C0.945341 14.0177 0.937102 14.3045 0.939227 14.5839C0.943246 15.1127 0.990843 15.4562 1.12545 15.928C1.19309 16.1651 1.38514 16.6049 1.51654 16.8237L1.60524 16.9713L1.52523 17.0927C1.40768 17.2709 1.19648 17.7233 1.12669 17.9462C0.992451 18.3752 0.946404 18.6444 0.929696 19.0979C0.864185 20.8781 1.60625 22.3773 2.85876 22.9956C2.9535 23.0423 5.0915 23.7691 7.60987 24.6107C10.1282 25.4522 12.6021 26.2796 13.1074 26.4493C14.6968 26.9832 15.2859 27.1752 15.3907 27.1937C15.5208 27.2166 15.8013 27.1628 15.9426 27.0877C16.1054 27.0013 16.2384 26.8651 16.5547 26.4613C16.7113 26.2615 17.0636 25.8138 17.3376 25.4666C17.6117 25.1193 17.979 24.6537 18.1538 24.4318C18.3287 24.2099 18.5577 23.9207 18.6627 23.7892C18.7677 23.6577 19.2977 22.9852 19.8403 22.2948C21.0259 20.7865 22.9951 18.2879 23.2439 17.9761C24.3522 16.5873 24.8099 15.9807 24.8658 15.8263C24.957 15.5746 24.9342 15.2176 24.811 14.9663C24.5264 14.386 24.4039 13.7892 24.4027 12.9782C24.4015 12.1477 24.52 11.4994 24.8493 10.5345C24.9556 10.2232 24.9454 9.88512 24.8219 9.62319C24.6863 9.33565 24.6928 8.99173 24.8424 8.53177C24.937 8.24133 24.9316 7.88585 24.8292 7.65847C24.7383 7.45637 24.5541 7.26055 24.3582 7.15762C24.2535 7.10262 24.1588 7.0806 23.9904 7.07208C23.7188 7.0583 23.5782 7.09602 23.3796 7.23589C23.1058 7.42875 22.9717 7.71797 22.8201 8.44211C22.748 8.78656 22.7164 9.52241 22.7639 9.75266L22.7958 9.90769L22.3498 10.4825C22.1045 10.7986 21.7779 11.2186 21.624 11.4159C21.4701 11.6131 21.1057 12.0822 20.8142 12.4583C19.8523 13.6995 19.6317 13.9839 18.8145 15.036C17.3336 16.9426 16.8461 17.5707 16.0231 18.6326C15.5742 19.2118 15.189 19.6929 15.1671 19.7017C15.1452 19.7104 15.0023 19.6765 14.8494 19.6263C14.6965 19.5762 13.9966 19.3519 13.294 19.1279C12.5914 18.9039 11.7904 18.6481 11.5141 18.5593C11.2378 18.4706 10.3335 18.1817 9.50457 17.9173C8.67564 17.653 7.83594 17.3843 7.63858 17.3203C7.44121 17.2563 6.65965 17.0066 5.90177 16.7653C5.14389 16.524 4.31983 16.2607 4.07054 16.18C3.82124 16.0994 3.57421 16.0335 3.52156 16.0335C3.33367 16.0335 3.10487 15.6877 2.99742 15.2414C2.95803 15.0778 2.94681 14.902 2.94597 14.4345C2.94474 13.7648 2.97689 13.591 3.14414 13.363C3.26405 13.1996 3.57458 13.0282 3.83384 12.9824C4.08225 12.9386 3.83674 12.8707 6.56204 13.737C6.92519 13.8524 7.51298 14.0383 7.86824 14.1501C8.2235 14.2619 8.86296 14.4639 9.28926 14.5991C9.71557 14.7344 10.2259 14.8959 10.4232 14.9582C10.6206 15.0204 11.2794 15.2286 11.8873 15.4208C13.1847 15.8309 13.5695 15.9523 14.2221 16.1571C14.6498 16.2914 14.729 16.3075 14.9126 16.2978C15.273 16.2789 15.3201 16.2362 16.2718 15.0648C16.7261 14.5057 17.6404 13.382 18.3036 12.5677C18.9669 11.7534 19.8534 10.6635 20.2737 10.1457C20.9569 9.30405 22.6481 7.22456 23.227 6.51438C24.9775 4.36678 24.9067 4.46959 24.9055 4.07732C24.9049 3.88864 24.8912 3.82394 24.8212 3.68003C24.7299 3.49216 24.5393 3.29006 24.3938 3.22676C24.3014 3.18656 23.7318 3.04666 22.2651 2.70397C21.8388 2.60436 21.3544 2.48962 21.1886 2.44904C21.0228 2.40842 20.2541 2.22611 19.4805 2.04391C18.7068 1.86175 17.8219 1.65311 17.514 1.5803C17.2061 1.50753 16.6442 1.37501 16.2652 1.28583C14.3899 0.844571 12.3511 0.362131 12.0246 0.282392C11.6202 0.183645 11.4877 0.176442 11.2581 0.2407ZM10.8806 3.80627C10.7927 3.83553 10.6788 3.88527 10.6274 3.91674C10.4865 4.00308 9.73349 4.98431 9.71695 5.10311C9.68308 5.34636 9.82842 5.44412 10.46 5.60288C10.7319 5.67121 11.2385 5.7993 11.5859 5.88756C11.9332 5.97579 12.5081 6.12107 12.8634 6.21037C13.2186 6.29967 14.2133 6.55082 15.0738 6.76845C16.5535 7.14267 16.6501 7.16329 16.8537 7.14814C17.0725 7.13188 17.2358 7.07713 17.377 6.97264C17.4454 6.92201 18.0769 6.13473 18.2113 5.93239C18.3176 5.77234 18.2549 5.5871 18.0592 5.48318C17.9981 5.45067 17.0139 5.18796 15.8722 4.89934C14.7305 4.61072 13.6155 4.32882 13.3945 4.27287C13.1734 4.21692 12.7471 4.10948 12.4471 4.03413C12.1471 3.95876 11.7738 3.86396 11.6175 3.82346C11.2848 3.73723 11.1007 3.73293 10.8806 3.80627ZM22.2579 13.8579C22.1789 13.9613 21.9093 14.3099 21.6586 14.6326C21.408 14.9552 20.8401 15.6882 20.3967 16.2614C19.9533 16.8346 19.084 17.956 18.465 18.7532C17.8461 19.5504 17.1689 20.4239 16.9603 20.6942C16.0942 21.8167 16.0321 21.8789 15.709 21.9503C15.4846 21.9999 15.3039 21.9789 14.9447 21.8614C14.7868 21.8098 14.4961 21.7161 14.2987 21.6531C14.1014 21.5901 13.2875 21.3279 12.4902 21.0704C9.02897 19.9526 8.30385 19.7186 7.39456 19.4261C6.96826 19.289 5.88469 18.9397 4.98663 18.6498C4.08857 18.3598 3.33287 18.1268 3.30729 18.132C3.24433 18.1446 3.08934 18.4212 3.0151 18.6534C2.85454 19.1557 2.9175 20.0159 3.14994 20.4959C3.23833 20.6784 3.47551 20.9978 3.571 21.063C3.62798 21.1019 4.24861 21.3171 5.15537 21.6125C5.28168 21.6537 5.86301 21.8465 6.44721 22.041C7.03141 22.2355 8.22637 22.6317 9.10266 22.9216C9.97896 23.2114 10.8703 23.5074 11.0835 23.5794C11.2966 23.6513 11.7165 23.7912 12.0165 23.8901C12.3165 23.989 13.1368 24.2609 13.8394 24.4944C14.542 24.7278 15.1311 24.9202 15.1484 24.9219C15.1657 24.9235 15.683 24.2861 16.2979 23.5053C18.2292 21.0527 19.9967 18.8077 20.8738 17.6931C21.339 17.1019 21.9689 16.3016 22.2736 15.9148C22.6155 15.4808 22.822 15.1944 22.8131 15.1667C22.8052 15.1421 22.746 14.9609 22.6815 14.7642C22.6171 14.5674 22.5332 14.2464 22.4951 14.0508C22.457 13.8552 22.4203 13.6895 22.4136 13.6825C22.4069 13.6756 22.3368 13.7545 22.2579 13.8579Z" fill="#FF2800"/>
</svg>
