<svg width="122" height="233" viewBox="0 0 122 233" fill="none" xmlns="http://www.w3.org/2000/svg">
<g clip-path="url(#clip0_20_595)">
<path d="M87.5545 60.2882C86.6396 58.9492 85.692 57.6321 84.7121 56.3387C83.3273 56.2834 82.1984 57.1069 81.9683 58.4238C81.7053 59.9275 82.7454 61.3226 84.395 61.6791C85.8033 61.9835 87.0551 61.4009 87.5545 60.2882Z" fill="#F58220"/>
<path d="M58.0592 201.113C56.6133 202.015 55.1439 202.882 53.6536 203.711C52.67 203.057 52.1371 201.909 52.3107 200.914C52.5737 199.411 54.0078 198.55 55.6583 198.907C56.9126 199.178 57.8142 200.049 58.0592 201.113Z" fill="#F58220"/>
<path d="M68.3873 137.753C66.7377 137.396 65.3027 138.257 65.0397 139.76C64.7767 141.263 65.8168 142.659 67.4664 143.015C69.1169 143.372 70.551 142.511 70.814 141.008C71.0444 139.692 70.0367 138.109 68.3873 137.753Z" fill="#F58220"/>
<path d="M90.5284 142.362C88.8788 142.005 87.4439 142.866 87.1809 144.369C86.9178 145.873 87.958 147.268 89.6083 147.624C91.2579 147.98 92.6919 147.12 92.9549 145.616C93.1854 144.301 92.1778 142.718 90.5284 142.362Z" fill="#F58220"/>
<path d="M46.2777 133.151C44.6281 132.794 43.194 133.655 42.931 135.158C42.668 136.661 43.7081 138.057 45.3577 138.413C47.0073 138.77 48.4423 137.909 48.7053 136.406C48.9681 134.902 47.928 133.507 46.2777 133.151Z" fill="#F58220"/>
<path d="M63.208 51.8139C61.5585 51.4574 60.1243 52.3176 59.8614 53.8213C59.5984 55.3249 60.6376 56.72 62.288 57.0764C63.9375 57.4329 65.3717 56.5726 65.6346 55.069C65.8976 53.5655 64.8575 52.1704 63.208 51.8139Z" fill="#F58220"/>
<path d="M20.6242 130.515C20.8872 129.012 22.3212 128.151 23.9717 128.508C25.6211 128.864 26.6613 130.259 26.3985 131.763C26.1354 133.267 24.7005 134.127 23.0509 133.771C21.4013 133.414 20.3611 132.019 20.6242 130.515Z" fill="#F58220"/>
<path d="M7.04103 209.845C5.39125 209.488 3.95685 210.349 3.69382 211.852C3.43079 213.356 4.47085 214.751 6.12063 215.108C7.77021 215.464 9.20482 214.604 9.46755 213.1C9.73058 211.596 8.69051 210.201 7.04103 209.845Z" fill="#F58220"/>
<path d="M37.5527 49.179C37.8157 47.6754 39.2507 46.8148 40.9002 47.1713C42.5497 47.5279 43.5899 48.923 43.3269 50.4266C43.0639 51.9302 41.6298 52.7905 39.9803 52.434C38.3299 52.0777 37.2897 50.6826 37.5527 49.179Z" fill="#F58220"/>
<path d="M1.86031 123.906C0.210987 123.55 -1.22362 124.409 -1.48644 125.914C-1.74947 127.417 -0.709407 128.812 0.940169 129.168C2.58995 129.525 4.02492 128.665 4.28774 127.161C4.55077 125.657 3.51062 124.262 1.86031 123.906Z" fill="#F58220"/>
<path d="M18.7896 42.5692C17.14 42.2126 15.7059 43.0729 15.443 44.5767C15.18 46.0804 16.2202 47.4756 17.8697 47.8321C19.5192 48.1886 20.9543 47.3282 21.2172 45.8244C21.4792 44.3209 20.44 42.9255 18.7896 42.5692Z" fill="#F58220"/>
<path d="M72.5875 117.569C70.9371 117.213 69.5029 118.073 69.2401 119.577C69.0096 120.893 70.0172 122.476 71.6668 122.832C73.3162 123.188 74.7514 122.328 75.0142 120.824C75.2772 119.321 74.2371 117.926 72.5875 117.569Z" fill="#F58220"/>
<path d="M91.3822 124.186C91.6452 122.683 93.0802 121.822 94.7297 122.179C96.3791 122.535 97.4193 123.93 97.1565 125.434C96.8934 126.938 95.4592 127.797 93.8098 127.441C92.1593 127.085 91.1526 125.502 91.3822 124.186Z" fill="#F58220"/>
<path d="M47.1314 114.975C47.3944 113.472 48.8284 112.611 50.478 112.968C52.1274 113.324 53.1676 114.719 52.9048 116.223C52.6417 117.727 51.2077 118.587 49.5581 118.23C47.9411 117.686 46.9009 116.291 47.1314 114.975Z" fill="#F58220"/>
<path d="M33.5496 194.305C31.9 193.948 30.4651 194.809 30.202 196.312C29.9725 197.628 31.0127 199.023 32.6288 199.567C34.2791 199.923 35.7133 199.063 35.9763 197.56C36.2392 196.056 35.1992 194.662 33.5496 194.305Z" fill="#F58220"/>
<path d="M28.1723 108.326C26.5227 107.969 25.0877 108.83 24.8247 110.333C24.5952 111.649 25.6018 113.232 27.2522 113.587C28.9018 113.944 30.336 113.085 30.5988 111.58C30.8618 110.077 29.8217 108.682 28.1723 108.326Z" fill="#F58220"/>
<path d="M7.89566 191.669C8.15869 190.166 9.59309 189.305 11.2429 189.662C12.8924 190.018 13.9325 191.413 13.6697 192.917C13.4067 194.421 11.9721 195.28 10.3225 194.925C8.6727 194.568 7.66559 192.985 7.89566 191.669Z" fill="#F58220"/>
<path d="M45.1007 26.9888C43.4512 26.6323 42.0171 27.4926 41.7541 28.9961C41.5236 30.3118 42.5312 31.8946 44.1807 32.2511C45.8302 32.6076 47.2644 31.7473 47.5273 30.2438C47.7903 28.7402 46.7511 27.3451 45.1007 26.9888Z" fill="#F58220"/>
<path d="M2.71494 105.731C2.97792 104.227 4.41206 103.367 6.06157 103.723C7.71199 104.08 8.7512 105.475 8.48913 106.978C8.22615 108.482 6.79109 109.342 5.14158 108.986C3.52461 108.441 2.48449 107.046 2.71494 105.731Z" fill="#F58220"/>
<path d="M19.6443 24.3937C19.9073 22.89 21.3423 22.0295 22.9918 22.386C24.6413 22.7426 25.6815 24.1377 25.4186 25.6415C25.1556 27.1452 23.7215 28.0055 22.072 27.6489C20.455 27.1045 19.4148 25.7093 19.6443 24.3937Z" fill="#F58220"/>
<path d="M0.687017 17.7436C-0.962515 17.387 -2.39755 18.2476 -2.66047 19.7514C-2.88996 21.0671 -1.84977 22.4623 -0.232764 23.0068C1.41677 23.3634 2.85088 22.5031 3.11381 20.9993C3.37673 19.4955 2.33655 18.1002 0.687017 17.7436Z" fill="#F58220"/>
<path d="M73.4812 99.2C73.744 97.6957 75.1791 96.8354 76.8286 97.1917C78.4782 97.5486 79.5183 98.9437 79.2553 100.447C78.9923 101.95 77.5582 102.811 75.9077 102.454C74.2583 102.098 73.2515 100.515 73.4812 99.2Z" fill="#F58220"/>
<path d="M98.9704 101.8C97.3211 101.444 95.8868 102.304 95.624 103.808C95.3936 105.124 96.4011 106.706 98.0507 107.063C99.7003 107.42 101.134 106.559 101.397 105.056C101.66 103.552 100.62 102.157 98.9704 101.8Z" fill="#F58220"/>
<path d="M59.9003 178.529C58.2507 178.172 56.8165 179.032 56.5537 180.537C56.3232 181.852 57.3299 183.435 58.9802 183.791C60.6298 184.148 62.0638 183.287 62.3268 181.784C62.5899 180.28 61.5497 178.885 59.9003 178.529Z" fill="#F58220"/>
<path d="M53.7991 97.8528C52.2044 97.5084 51.1186 96.0509 51.3725 94.5978C51.6264 93.1447 53.1253 92.2459 54.7191 92.5905C56.3139 92.935 57.4006 94.3922 57.1467 95.8453C56.8918 97.2987 55.3939 98.1972 53.7991 97.8528Z" fill="#F58220"/>
<path d="M34.4441 175.935C34.1892 177.388 35.2759 178.845 36.8708 179.19C38.4645 179.534 39.9633 178.635 40.2172 177.182C40.4712 175.729 39.3854 174.272 37.7907 173.928C36.1959 173.583 34.698 174.482 34.4441 175.935Z" fill="#F58220"/>
<path d="M29.0665 89.9543C28.8116 91.4076 29.8983 92.8649 31.4931 93.2092C33.0869 93.5538 34.5858 92.6551 34.8397 91.202C35.0946 89.7487 34.0078 88.2915 32.4131 87.9471C30.8193 87.6025 29.3204 88.5012 29.0665 89.9543Z" fill="#F58220"/>
<path d="M14.5639 174.547C12.97 174.202 11.8834 172.745 12.1372 171.292C12.3921 169.839 13.8899 168.94 15.4848 169.285C17.0794 169.629 18.1652 171.086 17.9113 172.539C17.6574 173.992 16.1586 174.891 14.5639 174.547Z" fill="#F58220"/>
<path d="M9.38261 88.608C7.78878 88.2633 6.70202 86.806 6.95595 85.3529C7.20987 83.8997 8.70873 83.0009 10.3035 83.3454C11.8973 83.69 12.9841 85.1473 12.7301 86.6005C12.4753 88.0539 10.9773 88.9524 9.38261 88.608Z" fill="#F58220"/>
<path d="M81.0714 76.8135C79.6276 76.5016 77.9868 77.3174 77.7238 78.821C77.4943 80.1364 78.501 81.7194 80.1505 82.076C81.8009 82.4323 83.235 81.572 83.498 80.0684C83.761 78.5649 82.5152 77.1253 81.0714 76.8135Z" fill="#F58220"/>
<path d="M60.7944 160.157C61.0574 158.654 62.6982 157.838 64.1411 158.15C65.5849 158.462 66.8306 159.901 66.5678 161.406C66.3047 162.909 64.8707 163.77 63.2211 163.413C61.5715 163.056 60.5639 161.473 60.7944 160.157Z" fill="#F58220"/>
<path d="M86.282 162.759C84.8391 162.446 83.1983 163.262 82.9353 164.766C82.7049 166.082 83.7127 167.665 85.3621 168.021C87.0116 168.378 88.4466 167.517 88.7096 166.014C88.9727 164.51 87.7258 163.071 86.282 162.759Z" fill="#F58220"/>
<path d="M55.6143 74.2194C55.8773 72.7158 57.3123 71.8554 58.9618 72.2119C60.6113 72.5683 61.6515 73.9634 61.3885 75.4669C61.1255 76.9704 59.6914 77.8307 58.0409 77.4744C56.3914 77.1179 55.3848 75.5349 55.6143 74.2194Z" fill="#F58220"/>
<path d="M42.0314 153.548C40.382 153.193 38.9478 154.052 38.6848 155.556C38.4543 156.871 39.4619 158.454 41.1115 158.811C42.7609 159.167 44.1951 158.307 44.4582 156.804C44.7212 155.301 43.681 153.905 42.0314 153.548Z" fill="#F58220"/>
<path d="M36.6549 67.5687C35.0054 67.2122 33.5704 68.0727 33.3083 69.5761C33.0779 70.8919 34.0846 72.4751 35.735 72.8314C37.3845 73.1879 38.8187 72.3276 39.0816 70.8239C39.3446 69.3203 38.3045 67.9253 36.6549 67.5687Z" fill="#F58220"/>
<path d="M16.3791 150.914C16.6421 149.41 18.0761 148.55 19.7257 148.906C21.3751 149.262 22.4153 150.657 22.1522 152.161C21.8894 153.665 20.4552 154.525 18.8056 154.168C17.1553 153.812 16.1486 152.229 16.3791 150.914Z" fill="#F58220"/>
<path d="M11.1987 64.9742C11.4607 63.4707 12.8957 62.6102 14.5453 62.9668C16.1948 63.3233 17.235 64.7184 16.972 66.2221C16.709 67.7258 15.2749 68.586 13.6254 68.2295C11.975 67.8732 10.9682 66.29 11.1987 64.9742Z" fill="#F58220"/>
<path d="M-2.38421 144.303C-4.03378 143.947 -5.46839 144.807 -5.73112 146.311C-5.9612 147.627 -4.95409 149.209 -3.30431 149.566C-1.65473 149.922 -0.220124 149.062 0.0426076 147.558C0.305636 146.055 -0.734428 144.66 -2.38421 144.303Z" fill="#F58220"/>
</g>
<defs>
<clipPath id="clip0_20_595">
<rect width="196.793" height="194.91" fill="white" transform="translate(-113 42.6849) rotate(-12.5272)"/>
</clipPath>
</defs>
</svg>
